<svg width="70" height="70" viewBox="0 0 170 170" fill="none" xmlns="http://www.w3.org/2000/svg">
<circle cx="85" cy="85" r="85" fill="#49B265"/>
<path d="M52.392 100.827C51.496 100.827 50.6853 100.699 49.96 100.443C49.256 100.208 48.7013 99.8987 48.296 99.5147C47.8907 99.1307 47.688 98.768 47.688 98.4267C47.688 98.1067 47.848 97.7013 48.168 97.2107C48.488 96.7413 48.8507 96.3253 49.256 95.9627C49.6827 95.6213 50.0133 95.4507 50.248 95.4507C50.376 95.4507 50.4507 95.504 50.472 95.6107C50.728 96.4427 51.08 97.1253 51.528 97.6587C51.9973 98.2133 52.7333 98.4907 53.736 98.4907C54.4613 98.4907 55.048 98.2987 55.496 97.9147C55.944 97.5307 56.3067 96.8907 56.584 95.9947C56.8827 95.12 57.1387 93.8827 57.352 92.2827L57.576 90.6827C56.2107 92.0053 54.5893 92.6667 52.712 92.6667C50.8133 92.6667 49.3307 92.0053 48.264 90.6827C47.1973 89.36 46.664 87.3867 46.664 84.7627C46.664 82.0533 47.2187 79.5893 48.328 77.3707C49.4373 75.1307 50.9093 73.3707 52.744 72.0907C54.6 70.7893 56.6053 70.1387 58.76 70.1387C60.104 70.1387 61.1707 70.3947 61.96 70.9067C62.7707 71.3973 63.176 72.08 63.176 72.9547C63.176 73.5093 62.9627 74.1813 62.536 74.9707C62.344 75.2693 62.1627 75.5147 61.992 75.7067C61.8213 75.8773 61.6293 75.9627 61.416 75.9627C61.224 75.9627 61.096 75.888 61.032 75.7387C60.968 75.568 60.9147 75.3547 60.872 75.0987C60.8293 74.8427 60.7867 74.64 60.744 74.4907C60.424 73.1893 59.432 72.5387 57.768 72.5387C56.296 72.5387 55.0053 73.04 53.896 74.0427C52.808 75.024 51.9653 76.368 51.368 78.0747C50.7707 79.7813 50.472 81.6907 50.472 83.8027C50.472 85.8933 50.7813 87.408 51.4 88.3467C52.0187 89.264 52.968 89.7227 54.248 89.7227C55.912 89.7227 57.1707 88.9867 58.024 87.5147L58.696 82.7467C58.76 82.192 58.984 81.712 59.368 81.3067C59.752 80.9013 60.1893 80.592 60.68 80.3787C61.192 80.1653 61.6507 80.0587 62.056 80.0587C62.2267 80.0587 62.344 80.08 62.408 80.1227C62.4933 80.1653 62.536 80.2507 62.536 80.3787C62.536 80.5067 62.4187 80.784 62.184 81.2107C61.9493 81.616 61.7893 82.192 61.704 82.9387L60.808 90.3947C60.4027 93.68 59.464 96.24 57.992 98.0747C56.52 99.9093 54.6533 100.827 52.392 100.827ZM65.2415 92.9867C64.8788 92.9867 64.6975 92.8587 64.6975 92.6027C64.6975 92.496 64.7722 92.2613 64.9215 91.8987C65.0922 91.5147 65.2522 90.928 65.4015 90.1387L65.9455 87.0667C66.5215 83.7813 66.8202 81.8613 66.8415 81.3067V81.0187C66.8415 80.656 66.7455 80.4747 66.5535 80.4747C66.1482 80.4747 65.5935 81.1253 64.8895 82.4267C64.8042 82.5973 64.7082 82.7573 64.6015 82.9067C64.4948 83.0347 64.3882 83.0987 64.2815 83.0987C64.0682 83.0987 63.9615 82.9173 63.9615 82.5547C63.9615 82 64.2068 81.3173 64.6975 80.5067C65.2095 79.6747 65.8282 78.96 66.5535 78.3627C67.3002 77.744 68.0148 77.4347 68.6975 77.4347C69.6148 77.4347 70.0735 78.0427 70.0735 79.2587C70.0735 79.5147 69.9882 80.4107 69.8175 81.9467H69.8495C70.7455 80.368 71.5882 79.2267 72.3775 78.5227C73.1882 77.7973 73.9988 77.4347 74.8095 77.4347C75.3642 77.4347 75.8122 77.5947 76.1535 77.9147C76.4948 78.2347 76.6655 78.6933 76.6655 79.2907C76.6655 79.8667 76.5268 80.432 76.2495 80.9867C75.9935 81.5413 75.6735 82 75.2895 82.3627C74.9055 82.704 74.5748 82.8747 74.2975 82.8747C74.1268 82.8747 74.0735 82.768 74.1375 82.5547C74.2015 82.256 74.2335 81.9787 74.2335 81.7227C74.2335 81.168 73.9882 80.8907 73.4975 80.8907C72.6868 80.8907 71.8762 81.4453 71.0655 82.5547C70.2762 83.664 69.6575 85.264 69.2095 87.3547C68.8895 88.6773 68.6762 89.712 68.5695 90.4587C68.4628 91.056 68.0362 91.632 67.2895 92.1867C66.5642 92.72 65.8815 92.9867 65.2415 92.9867ZM78.0935 92.9867C77.4322 92.9867 76.9095 92.656 76.5255 91.9947C76.1628 91.3333 75.9815 90.448 75.9815 89.3387C75.9815 87.568 76.4082 85.7547 77.2615 83.8987C78.1362 82.0427 79.3202 80.5067 80.8135 79.2907C82.3068 78.0533 83.9175 77.4347 85.6455 77.4347C86.2002 77.4347 86.7442 77.4987 87.2775 77.6267C87.8322 77.7547 88.2802 77.9147 88.6215 78.1067C88.4295 78.576 88.3015 78.96 88.2375 79.2587C88.1735 79.5573 88.1308 79.7493 88.1095 79.8347C87.9602 80.6027 87.7362 81.776 87.4375 83.3547C87.1602 84.912 86.8935 86.4053 86.6375 87.8347C86.5095 88.4747 86.4455 88.9653 86.4455 89.3067C86.4455 89.5413 86.4775 89.712 86.5415 89.8187C86.6268 89.9253 86.7442 89.9787 86.8935 89.9787C87.2562 89.9787 87.5868 89.7653 87.8855 89.3387C88.1842 88.8907 88.5042 88.272 88.8455 87.4827C88.8882 87.3547 88.9415 87.248 89.0055 87.1627C89.0695 87.0773 89.1548 87.0347 89.2615 87.0347C89.4535 87.0347 89.5495 87.184 89.5495 87.4827C89.5495 87.632 89.5388 87.7493 89.5175 87.8347C89.4108 88.6453 89.1335 89.456 88.6855 90.2667C88.2375 91.056 87.6828 91.7067 87.0215 92.2187C86.3815 92.7307 85.7202 92.9867 85.0375 92.9867C84.4828 92.9867 84.0455 92.784 83.7255 92.3787C83.4268 91.9733 83.2775 91.4293 83.2775 90.7467C83.2775 90.576 83.2988 90.32 83.3415 89.9787L83.5015 88.8907H83.4375C82.6482 90.0853 81.7415 91.0667 80.7175 91.8347C79.7148 92.6027 78.8402 92.9867 78.0935 92.9867ZM79.9175 89.8187C80.3868 89.8187 80.9842 89.4027 81.7095 88.5707C82.4562 87.7387 83.1495 86.6933 83.7895 85.4347C84.4295 84.1547 84.8562 82.8853 85.0695 81.6267L85.2935 80.3787C84.7602 80.0587 84.2695 79.8987 83.8215 79.8987C83.1388 79.8987 82.4455 80.3253 81.7415 81.1787C81.0588 82.0107 80.4935 83.0987 80.0455 84.4427C79.6188 85.7653 79.4055 87.12 79.4055 88.5067C79.4055 89.0187 79.4375 89.3707 79.5015 89.5627C79.5868 89.7333 79.7255 89.8187 79.9175 89.8187ZM92.3345 92.9867C91.9932 92.9867 91.8225 92.88 91.8225 92.6667C91.8225 92.56 91.8758 92.3467 91.9825 92.0267C92.2172 91.344 92.3665 90.7893 92.4305 90.3627C92.6012 89.552 92.8358 88.304 93.1345 86.6187C93.4545 84.9333 93.6892 83.4827 93.8385 82.2667C93.9452 81.52 93.9985 81.0613 93.9985 80.8907C93.9985 80.6133 93.9132 80.4747 93.7425 80.4747C93.2945 80.4747 92.7185 81.1253 92.0145 82.4267C91.9292 82.5973 91.8332 82.7573 91.7265 82.9067C91.6198 83.0347 91.5132 83.0987 91.4065 83.0987C91.1932 83.0987 91.0865 82.9173 91.0865 82.5547C91.0865 81.9787 91.3318 81.2853 91.8225 80.4747C92.3345 79.6427 92.9532 78.928 93.6785 78.3307C94.4252 77.7333 95.1398 77.4347 95.8225 77.4347C96.2492 77.4347 96.5905 77.584 96.8465 77.8827C97.1025 78.1813 97.2305 78.6507 97.2305 79.2907C97.2305 80.1227 97.1452 81.072 96.9745 82.1387H97.0065C97.7958 80.7307 98.6492 79.6 99.5665 78.7467C100.484 77.872 101.359 77.4347 102.191 77.4347C103.279 77.4347 103.823 78.1813 103.823 79.6747C103.823 80.0587 103.769 80.592 103.663 81.2747L103.631 81.4667H103.663C104.495 80.208 105.327 79.2267 106.159 78.5227C106.991 77.7973 107.791 77.4347 108.559 77.4347C109.647 77.4347 110.191 78.2027 110.191 79.7387C110.191 80.3787 110.095 81.1787 109.903 82.1387C109.54 83.9733 109.327 85.04 109.263 85.3387C109.135 86.0213 108.985 86.8213 108.815 87.7387C108.644 88.6347 108.559 89.168 108.559 89.3387C108.559 89.7653 108.697 89.9787 108.975 89.9787C109.295 89.9787 109.593 89.7653 109.871 89.3387C110.148 88.912 110.447 88.2933 110.767 87.4827C110.895 87.184 111.044 87.0347 111.215 87.0347C111.321 87.0347 111.396 87.1093 111.439 87.2587C111.503 87.408 111.524 87.6 111.503 87.8347C111.417 88.6027 111.129 89.392 110.639 90.2027C110.169 90.992 109.593 91.6533 108.911 92.1867C108.228 92.72 107.545 92.9867 106.863 92.9867C105.796 92.9867 105.263 92.2827 105.263 90.8747C105.263 90 105.519 88.304 106.031 85.7867C106.201 84.9547 106.351 84.1333 106.479 83.3227C106.628 82.4907 106.713 81.8187 106.735 81.3067V81.1147C106.735 80.7307 106.617 80.5387 106.383 80.5387C106.084 80.5387 105.7 80.8267 105.231 81.4027C104.783 81.9573 104.324 82.6933 103.855 83.6107C103.407 84.528 103.033 85.4667 102.735 86.4267L101.743 91.6427C101.679 91.9627 101.305 92.272 100.623 92.5707C99.9398 92.848 99.3532 92.9867 98.8625 92.9867C98.6705 92.9867 98.5532 92.944 98.5105 92.8587C98.4678 92.7947 98.4678 92.6667 98.5105 92.4747C98.5318 92.3893 98.8412 90.7787 99.4385 87.6427C100.057 84.5067 100.399 82.3947 100.463 81.3067V81.0507C100.463 80.7093 100.356 80.5387 100.143 80.5387C99.7798 80.5387 99.3212 80.912 98.7665 81.6587C98.2118 82.4053 97.6892 83.344 97.1985 84.4747C96.7078 85.6053 96.3558 86.704 96.1425 87.7707L95.6305 90.3627C95.5025 91.0027 95.0865 91.6 94.3825 92.1547C93.6998 92.7093 93.0172 92.9867 92.3345 92.9867ZM114.397 92.9867C114.056 92.9867 113.885 92.88 113.885 92.6667C113.885 92.56 113.938 92.3467 114.045 92.0267C114.28 91.344 114.429 90.7893 114.493 90.3627C114.664 89.552 114.898 88.304 115.197 86.6187C115.517 84.9333 115.752 83.4827 115.901 82.2667C116.008 81.52 116.061 81.0613 116.061 80.8907C116.061 80.6133 115.976 80.4747 115.805 80.4747C115.357 80.4747 114.781 81.1253 114.077 82.4267C113.992 82.5973 113.896 82.7573 113.789 82.9067C113.682 83.0347 113.576 83.0987 113.469 83.0987C113.256 83.0987 113.149 82.9173 113.149 82.5547C113.149 81.9787 113.394 81.2853 113.885 80.4747C114.397 79.6427 115.016 78.928 115.741 78.3307C116.488 77.7333 117.202 77.4347 117.885 77.4347C118.312 77.4347 118.653 77.584 118.909 77.8827C119.165 78.1813 119.293 78.6507 119.293 79.2907C119.293 80.1227 119.208 81.072 119.037 82.1387H119.069C119.858 80.7307 120.712 79.6 121.629 78.7467C122.546 77.872 123.421 77.4347 124.253 77.4347C125.341 77.4347 125.885 78.1813 125.885 79.6747C125.885 80.0587 125.832 80.592 125.725 81.2747L125.693 81.4667H125.725C126.557 80.208 127.389 79.2267 128.221 78.5227C129.053 77.7973 129.853 77.4347 130.621 77.4347C131.709 77.4347 132.253 78.2027 132.253 79.7387C132.253 80.3787 132.157 81.1787 131.965 82.1387C131.602 83.9733 131.389 85.04 131.325 85.3387C131.197 86.0213 131.048 86.8213 130.877 87.7387C130.706 88.6347 130.621 89.168 130.621 89.3387C130.621 89.7653 130.76 89.9787 131.037 89.9787C131.357 89.9787 131.656 89.7653 131.933 89.3387C132.21 88.912 132.509 88.2933 132.829 87.4827C132.957 87.184 133.106 87.0347 133.277 87.0347C133.384 87.0347 133.458 87.1093 133.501 87.2587C133.565 87.408 133.586 87.6 133.565 87.8347C133.48 88.6027 133.192 89.392 132.701 90.2027C132.232 90.992 131.656 91.6533 130.973 92.1867C130.29 92.72 129.608 92.9867 128.925 92.9867C127.858 92.9867 127.325 92.2827 127.325 90.8747C127.325 90 127.581 88.304 128.093 85.7867C128.264 84.9547 128.413 84.1333 128.541 83.3227C128.69 82.4907 128.776 81.8187 128.797 81.3067V81.1147C128.797 80.7307 128.68 80.5387 128.445 80.5387C128.146 80.5387 127.762 80.8267 127.293 81.4027C126.845 81.9573 126.386 82.6933 125.917 83.6107C125.469 84.528 125.096 85.4667 124.797 86.4267L123.805 91.6427C123.741 91.9627 123.368 92.272 122.685 92.5707C122.002 92.848 121.416 92.9867 120.925 92.9867C120.733 92.9867 120.616 92.944 120.573 92.8587C120.53 92.7947 120.53 92.6667 120.573 92.4747C120.594 92.3893 120.904 90.7787 121.501 87.6427C122.12 84.5067 122.461 82.3947 122.525 81.3067V81.0507C122.525 80.7093 122.418 80.5387 122.205 80.5387C121.842 80.5387 121.384 80.912 120.829 81.6587C120.274 82.4053 119.752 83.344 119.261 84.4747C118.77 85.6053 118.418 86.704 118.205 87.7707L117.693 90.3627C117.565 91.0027 117.149 91.6 116.445 92.1547C115.762 92.7093 115.08 92.9867 114.397 92.9867ZM137.281 92.9867C136.62 92.9867 136.097 92.656 135.713 91.9947C135.35 91.3333 135.169 90.448 135.169 89.3387C135.169 87.568 135.596 85.7547 136.449 83.8987C137.324 82.0427 138.508 80.5067 140.001 79.2907C141.494 78.0533 143.105 77.4347 144.833 77.4347C145.388 77.4347 145.932 77.4987 146.465 77.6267C147.02 77.7547 147.468 77.9147 147.809 78.1067C147.617 78.576 147.489 78.96 147.425 79.2587C147.361 79.5573 147.318 79.7493 147.297 79.8347C147.148 80.6027 146.924 81.776 146.625 83.3547C146.348 84.912 146.081 86.4053 145.825 87.8347C145.697 88.4747 145.633 88.9653 145.633 89.3067C145.633 89.5413 145.665 89.712 145.729 89.8187C145.814 89.9253 145.932 89.9787 146.081 89.9787C146.444 89.9787 146.774 89.7653 147.073 89.3387C147.372 88.8907 147.692 88.272 148.033 87.4827C148.076 87.3547 148.129 87.248 148.193 87.1627C148.257 87.0773 148.342 87.0347 148.449 87.0347C148.641 87.0347 148.737 87.184 148.737 87.4827C148.737 87.632 148.726 87.7493 148.705 87.8347C148.598 88.6453 148.321 89.456 147.873 90.2667C147.425 91.056 146.87 91.7067 146.209 92.2187C145.569 92.7307 144.908 92.9867 144.225 92.9867C143.67 92.9867 143.233 92.784 142.913 92.3787C142.614 91.9733 142.465 91.4293 142.465 90.7467C142.465 90.576 142.486 90.32 142.529 89.9787L142.689 88.8907H142.625C141.836 90.0853 140.929 91.0667 139.905 91.8347C138.902 92.6027 138.028 92.9867 137.281 92.9867ZM139.105 89.8187C139.574 89.8187 140.172 89.4027 140.897 88.5707C141.644 87.7387 142.337 86.6933 142.977 85.4347C143.617 84.1547 144.044 82.8853 144.257 81.6267L144.481 80.3787C143.948 80.0587 143.457 79.8987 143.009 79.8987C142.326 79.8987 141.633 80.3253 140.929 81.1787C140.246 82.0107 139.681 83.0987 139.233 84.4427C138.806 85.7653 138.593 87.12 138.593 88.5067C138.593 89.0187 138.625 89.3707 138.689 89.5627C138.774 89.7333 138.913 89.8187 139.105 89.8187Z" fill="white"/>
<g clip-path="url(#clip0_2_20)">
<path d="M21.7222 94.8528C21.7222 93.8052 22.0332 92.8005 22.5867 92.0597C23.1402 91.3189 23.8909 90.9028 24.6736 90.9028H40.6111" stroke="white" stroke-width="3" stroke-linecap="round" stroke-linejoin="round"/>
<path d="M24.6736 73.1944H40.6111V97.8044H24.6736C23.8909 97.8044 23.1402 97.4803 22.5867 96.9034C22.0332 96.3265 21.7222 95.5441 21.7222 94.7282V76.2707C21.7222 75.4548 22.0332 74.6724 22.5867 74.0955C23.1402 73.5186 23.8909 73.1944 24.6736 73.1944Z" stroke="white" stroke-width="3" stroke-linecap="round" stroke-linejoin="round"/>
</g>
<defs>
<clipPath id="clip0_2_20">
<rect width="28.3333" height="28.3333" fill="white" transform="translate(17 70.8333)"/>
</clipPath>
</defs>
</svg>